<?xml version="1.0" encoding="UTF-8"?>
<svg version="1.1" xmlns="http://www.w3.org/2000/svg" width="200" height="200">
<path d="M0 0 C1.75997818 -0.00854256 1.75997818 -0.00854256 3.55551147 -0.01725769 C7.41694114 -0.02833285 11.27666144 0.00365431 15.13793945 0.03735352 C17.82738086 0.04395889 20.51680515 0.04244012 23.20625305 0.04151917 C28.83416835 0.04432163 34.46159596 0.07027612 40.08935547 0.11132812 C46.58902936 0.15856613 53.08817066 0.17431968 59.58800381 0.17212147 C66.52279171 0.17009322 73.45737537 0.19091864 80.39210153 0.21846128 C82.38502204 0.22484417 84.3779558 0.22651455 86.37088585 0.22817802 C90.08607036 0.23467624 93.80058439 0.26092238 97.515625 0.29296875 C98.61651962 0.29160919 99.71741425 0.29024963 100.85166931 0.28884888 C110.27438515 0.407815 110.27438515 0.407815 114.0637207 3.72875977 C117.01730976 6.96211289 117.43751502 9.08842464 117.43121338 13.42860413 C117.43678253 14.59092056 117.44235168 15.753237 117.4480896 16.95077515 C117.43426743 18.85773666 117.43426743 18.85773666 117.42016602 20.80322266 C117.42095706 22.15853507 117.42305485 23.51384727 117.42636108 24.86915588 C117.43149326 28.54679745 117.41796394 32.22415901 117.40083408 35.90175557 C117.38579533 39.74939238 117.38697206 43.59702561 117.38616943 47.44468689 C117.38247749 53.90506774 117.36751325 60.3653423 117.3449707 66.82568359 C117.31608543 75.12070837 117.3057461 83.4156476 117.3012886 91.7107172 C117.29730962 98.83973448 117.28480851 105.96873314 117.27094173 113.09773707 C117.26684241 115.39075538 117.26391697 117.68377303 117.26114655 119.97679329 C117.25625405 123.57762504 117.24605148 127.17840492 117.23170853 130.77921104 C117.22502497 132.73355657 117.22318179 134.68791675 117.22146606 136.64227295 C117.21575592 137.80176956 117.21004578 138.96126617 117.2041626 140.15589905 C117.20118793 141.16559785 117.19821327 142.17529665 117.19514847 143.21559238 C117.0637207 145.72875977 117.0637207 145.72875977 116.0637207 148.72875977 C114.5402832 149.89672852 114.5402832 149.89672852 112.6887207 150.91625977 C112.08286133 151.26043945 111.47700195 151.60461914 110.8527832 151.95922852 C109.0637207 152.72875977 109.0637207 152.72875977 106.0637207 152.72875977 C106.15073242 154.3568457 106.15073242 154.3568457 106.23950195 156.01782227 C106.28642628 157.46309152 106.33192357 158.9084076 106.3762207 160.35375977 C106.4390625 161.42303711 106.4390625 161.42303711 106.50317383 162.51391602 C106.59602602 166.56227173 106.27084616 168.9928029 103.66918945 172.18969727 C100.42036681 175.35571633 99.11091197 175.85232786 94.73898315 175.87593079 C93.37648689 175.88666374 93.37648689 175.88666374 91.98646545 175.89761353 C90.98699387 175.90030243 89.98752228 175.90299133 88.95776367 175.90576172 C87.90718277 175.91233292 86.85660187 175.91890411 85.77418518 175.92567444 C82.28475885 175.94544267 78.79537567 175.95707932 75.3059082 175.96704102 C73.51981329 175.97315431 73.51981329 175.97315431 71.69763565 175.9793911 C65.39258242 176.00026915 59.08755105 176.01456207 52.7824707 176.02392578 C46.27237691 176.03497995 39.76262588 176.06936389 33.25265312 176.10909748 C28.24599579 176.13526073 23.23942003 176.14361751 18.23270035 176.14720726 C15.83337215 176.15207573 13.43404766 176.16369706 11.03478622 176.18224525 C7.67159784 176.20662427 4.30929484 176.20567317 0.94604492 176.19873047 C-0.04128128 176.21154053 -1.02860748 176.22435059 -2.04585266 176.23754883 C-8.17926138 176.19151881 -12.82024076 175.23631275 -17.9362793 171.72875977 C-22.66230807 166.87836182 -24.1827213 162.29337927 -24.20370483 155.60063171 C-24.2122348 154.36843903 -24.22076477 153.13624634 -24.22955322 151.86671448 C-24.22885426 150.50912463 -24.22793123 149.15153488 -24.22680664 147.79394531 C-24.23279394 146.35792695 -24.23959995 144.92191181 -24.24716187 143.48590088 C-24.26480972 139.59113866 -24.26951676 135.69646436 -24.27079344 131.80166602 C-24.27221641 129.36614366 -24.27648879 126.93064355 -24.28178787 124.49512672 C-24.30028489 115.9920167 -24.30845899 107.48896932 -24.30688477 98.98583984 C-24.3056838 91.07018191 -24.32677804 83.15479683 -24.35837209 75.23920792 C-24.38455946 68.4347791 -24.39525102 61.63043926 -24.39397395 54.82596046 C-24.39346499 50.76573421 -24.39911124 46.70575045 -24.42033005 42.64557457 C-24.43975384 38.82461999 -24.43980904 35.00413817 -24.42529678 31.1831665 C-24.42321261 29.78520323 -24.42788626 28.38721005 -24.4400177 26.98929787 C-24.51113533 18.22271516 -24.36111424 11.5899289 -18.31093693 4.94314194 C-12.68975643 -0.05026825 -7.25513626 -0.11171759 0 0 Z " fill="#FCFCFC" transform="translate(52.936279296875,10.271240234375)"/>
<path d="M0 0 C1.75997818 -0.00854256 1.75997818 -0.00854256 3.55551147 -0.01725769 C7.41694114 -0.02833285 11.27666144 0.00365431 15.13793945 0.03735352 C17.82738086 0.04395889 20.51680515 0.04244012 23.20625305 0.04151917 C28.83416835 0.04432163 34.46159596 0.07027612 40.08935547 0.11132812 C46.58902936 0.15856613 53.08817066 0.17431968 59.58800381 0.17212147 C66.52279171 0.17009322 73.45737537 0.19091864 80.39210153 0.21846128 C82.38502204 0.22484417 84.3779558 0.22651455 86.37088585 0.22817802 C90.08607036 0.23467624 93.80058439 0.26092238 97.515625 0.29296875 C98.61651962 0.29160919 99.71741425 0.29024963 100.85166931 0.28884888 C110.27438515 0.407815 110.27438515 0.407815 114.0637207 3.72875977 C117.01730976 6.96211289 117.43751502 9.08842464 117.43121338 13.42860413 C117.43678253 14.59092056 117.44235168 15.753237 117.4480896 16.95077515 C117.43426743 18.85773666 117.43426743 18.85773666 117.42016602 20.80322266 C117.42095706 22.15853507 117.42305485 23.51384727 117.42636108 24.86915588 C117.43149326 28.54679745 117.41796394 32.22415901 117.40083408 35.90175557 C117.38579533 39.74939238 117.38697206 43.59702561 117.38616943 47.44468689 C117.38247749 53.90506774 117.36751325 60.3653423 117.3449707 66.82568359 C117.31608543 75.12070837 117.3057461 83.4156476 117.3012886 91.7107172 C117.29730962 98.83973448 117.28480851 105.96873314 117.27094173 113.09773707 C117.26684241 115.39075538 117.26391697 117.68377303 117.26114655 119.97679329 C117.25625405 123.57762504 117.24605148 127.17840492 117.23170853 130.77921104 C117.22502497 132.73355657 117.22318179 134.68791675 117.22146606 136.64227295 C117.21575592 137.80176956 117.21004578 138.96126617 117.2041626 140.15589905 C117.20118793 141.16559785 117.19821327 142.17529665 117.19514847 143.21559238 C117.0637207 145.72875977 117.0637207 145.72875977 116.0637207 148.72875977 C114.5402832 149.89672852 114.5402832 149.89672852 112.6887207 150.91625977 C112.08286133 151.26043945 111.47700195 151.60461914 110.8527832 151.95922852 C109.0637207 152.72875977 109.0637207 152.72875977 106.0637207 152.72875977 C106.15073242 154.3568457 106.15073242 154.3568457 106.23950195 156.01782227 C106.28642628 157.46309152 106.33192357 158.9084076 106.3762207 160.35375977 C106.4390625 161.42303711 106.4390625 161.42303711 106.50317383 162.51391602 C106.59602602 166.56227173 106.27084616 168.9928029 103.66918945 172.18969727 C100.42036681 175.35571633 99.11091197 175.85232786 94.73898315 175.87593079 C93.37648689 175.88666374 93.37648689 175.88666374 91.98646545 175.89761353 C90.98699387 175.90030243 89.98752228 175.90299133 88.95776367 175.90576172 C87.90718277 175.91233292 86.85660187 175.91890411 85.77418518 175.92567444 C82.28475885 175.94544267 78.79537567 175.95707932 75.3059082 175.96704102 C73.51981329 175.97315431 73.51981329 175.97315431 71.69763565 175.9793911 C65.39258242 176.00026915 59.08755105 176.01456207 52.7824707 176.02392578 C46.27237691 176.03497995 39.76262588 176.06936389 33.25265312 176.10909748 C28.24599579 176.13526073 23.23942003 176.14361751 18.23270035 176.14720726 C15.83337215 176.15207573 13.43404766 176.16369706 11.03478622 176.18224525 C7.67159784 176.20662427 4.30929484 176.20567317 0.94604492 176.19873047 C-0.04128128 176.21154053 -1.02860748 176.22435059 -2.04585266 176.23754883 C-8.17926138 176.19151881 -12.82024076 175.23631275 -17.9362793 171.72875977 C-22.66230807 166.87836182 -24.1827213 162.29337927 -24.20370483 155.60063171 C-24.2122348 154.36843903 -24.22076477 153.13624634 -24.22955322 151.86671448 C-24.22885426 150.50912463 -24.22793123 149.15153488 -24.22680664 147.79394531 C-24.23279394 146.35792695 -24.23959995 144.92191181 -24.24716187 143.48590088 C-24.26480972 139.59113866 -24.26951676 135.69646436 -24.27079344 131.80166602 C-24.27221641 129.36614366 -24.27648879 126.93064355 -24.28178787 124.49512672 C-24.30028489 115.9920167 -24.30845899 107.48896932 -24.30688477 98.98583984 C-24.3056838 91.07018191 -24.32677804 83.15479683 -24.35837209 75.23920792 C-24.38455946 68.4347791 -24.39525102 61.63043926 -24.39397395 54.82596046 C-24.39346499 50.76573421 -24.39911124 46.70575045 -24.42033005 42.64557457 C-24.43975384 38.82461999 -24.43980904 35.00413817 -24.42529678 31.1831665 C-24.42321261 29.78520323 -24.42788626 28.38721005 -24.4400177 26.98929787 C-24.51113533 18.22271516 -24.36111424 11.5899289 -18.31093693 4.94314194 C-12.68975643 -0.05026825 -7.25513626 -0.11171759 0 0 Z M4.0637207 12.72875977 C3.96760652 14.38633597 3.94184316 16.04802963 3.94346619 17.70838928 C3.94209152 18.78677567 3.94071686 19.86516205 3.93930054 20.97622681 C3.94289581 22.16952606 3.94649109 23.36282532 3.95019531 24.59228516 C3.95004929 25.84088821 3.94990326 27.08949127 3.94975281 28.37593079 C3.95033179 31.8096697 3.95536116 35.24334915 3.96232677 38.67707753 C3.96856072 42.26188435 3.96916414 45.84669189 3.97035217 49.4315033 C3.97346536 56.22426022 3.98167859 63.01700112 3.99170166 69.80975097 C4.00494853 78.98568211 4.01036281 88.1616176 4.01620388 97.33755589 C4.02561849 111.80130252 4.04553748 126.26501535 4.0637207 140.72875977 C37.7237207 140.72875977 71.3837207 140.72875977 106.0637207 140.72875977 C106.09283589 118.00317557 106.09283589 118.00317557 106.11254883 95.27758789 C106.11849186 86.01561939 106.12549363 76.75365997 106.13916016 67.49169922 C106.14910689 60.74748825 106.15557411 54.00328462 106.1578092 47.25906652 C106.15911632 43.68589111 106.16220229 40.11273666 106.16945076 36.53956795 C106.17746442 32.55713626 106.17771185 28.57472535 106.17724609 24.59228516 C106.18263901 22.80233627 106.18263901 22.80233627 106.18814087 20.97622681 C106.18607887 19.35864723 106.18607887 19.35864723 106.18397522 17.70838928 C106.18489701 16.76539506 106.18581881 15.82240084 106.18676853 14.85083103 C106.30058505 12.74396132 106.30058505 12.74396132 105.0637207 11.72875977 C101.96401306 11.62808943 98.88654399 11.59261676 95.78637695 11.59936523 C94.81248016 11.59761292 93.83858337 11.5958606 92.83517456 11.59405518 C89.59883876 11.58963478 86.36255711 11.59257531 83.1262207 11.59594727 C80.88802073 11.59527428 78.64982082 11.5943043 76.41162109 11.5930481 C71.71394151 11.59157087 67.0162809 11.59372648 62.31860352 11.59838867 C56.28211456 11.60408597 50.24567006 11.6008071 44.20918274 11.59481621 C39.58540509 11.59121127 34.96163807 11.59234887 30.33786011 11.594944 C28.11139928 11.59561346 25.8849375 11.59478421 23.65847778 11.59246445 C20.55264716 11.58993902 17.44688961 11.59377697 14.34106445 11.59936523 C12.94620316 11.59632889 12.94620316 11.59632889 11.52316284 11.5932312 C7.47220264 11.19491748 7.47220264 11.19491748 4.0637207 12.72875977 Z " fill="#070707" transform="translate(52.936279296875,10.271240234375)"/>
<path d="M0 0 C0.99773437 -0.00315216 1.99546875 -0.00630432 3.0234375 -0.009552 C4.65152344 -0.00651566 4.65152344 -0.00651566 6.3125 -0.00341797 C7.41851562 -0.00437469 8.52453125 -0.00533142 9.6640625 -0.00631714 C12.00781308 -0.00699913 14.35156553 -0.00514351 16.6953125 -0.00097656 C20.29691788 0.00437139 23.89839853 -0.00092093 27.5 -0.00732422 C29.77083361 -0.00666344 32.04166714 -0.00538229 34.3125 -0.00341797 C35.94058594 -0.00645432 35.94058594 -0.00645432 37.6015625 -0.009552 C38.59929687 -0.00639984 39.59703125 -0.00324768 40.625 0 C41.50800781 0.00079559 42.39101562 0.00159119 43.30078125 0.00241089 C45.3125 0.12939453 45.3125 0.12939453 46.3125 1.12939453 C46.40025605 3.2749828 46.41945219 5.42343874 46.41015625 7.57080078 C46.40765869 8.74586182 46.40516113 9.92092285 46.40258789 11.1315918 C46.39348389 12.6364917 46.38437988 14.1413916 46.375 15.69189453 C46.354375 20.45626953 46.33375 25.22064453 46.3125 30.12939453 C29.1525 30.12939453 11.9925 30.12939453 -5.6875 30.12939453 C-5.708125 25.36501953 -5.72875 20.60064453 -5.75 15.69189453 C-5.759104 14.18699463 -5.76820801 12.68209473 -5.77758789 11.1315918 C-5.78008545 9.95653076 -5.78258301 8.78146973 -5.78515625 7.57080078 C-5.79039307 6.36109619 -5.79562988 5.1513916 -5.80102539 3.9050293 C-5.61503447 -0.64234866 -4.0991819 0.00369338 0 0 Z " fill="#030303" transform="translate(87.6875,41.87060546875)"/>
<path d="M0 0 C1.34403648 -0.00618599 1.34403648 -0.00618599 2.71522522 -0.01249695 C3.69561768 -0.00171112 4.67601013 0.00907471 5.68611145 0.02018738 C7.23758629 0.01953026 7.23758629 0.01953026 8.82040405 0.01885986 C12.24563856 0.02095304 15.67038608 0.04430953 19.09553528 0.0677948 C21.46779106 0.07338886 23.84005031 0.07765985 26.21231079 0.08065796 C32.46118205 0.09212164 38.70984469 0.12160212 44.95863342 0.1547699 C51.3330147 0.18543786 57.70742964 0.1991563 64.0818634 0.21427917 C76.59302021 0.24647018 89.10403228 0.29710978 101.61506653 0.36076355 C102.09510976 7.68142284 102.09510976 7.68142284 100.21894836 10.33650208 C96.1637393 11.9316568 92.27312175 11.77734743 87.95295715 11.74894714 C86.97368759 11.7542041 85.99441803 11.75946106 84.98547363 11.76487732 C81.7472592 11.77808515 78.509536 11.76933626 75.27131653 11.75920105 C73.02217006 11.76122155 70.77302423 11.76413279 68.52388 11.76789856 C63.80958317 11.77232298 59.09545683 11.76588691 54.38117981 11.75187683 C48.33486103 11.73478505 42.28894175 11.74462558 36.24263763 11.76259422 C31.59812911 11.77342876 26.95371547 11.7699872 22.3092041 11.76221085 C20.07964023 11.76020793 17.85006777 11.76267129 15.62051392 11.76964951 C12.50583537 11.77725837 9.39180604 11.76566724 6.2771759 11.74894714 C4.89153694 11.75805618 4.89153694 11.75805618 3.47790527 11.76734924 C-2.7356946 11.70547657 -2.7356946 11.70547657 -5.96147156 9.99275208 C-7.38493347 8.36076355 -7.38493347 8.36076355 -7.82243347 5.86076355 C-7.00344057 1.18080412 -4.51734731 -0.01603792 0 0 Z " fill="#FEFEFE" transform="translate(49.38493347167969,162.6392364501953)"/>
<path d="M0 0 C0 2.97 0 5.94 0 9 C-0.680625 9.165 -1.36125 9.33 -2.0625 9.5 C-5.84167297 11.42979045 -7.88547537 14.06877643 -10.546875 17.3203125 C-11.02640625 17.87460938 -11.5059375 18.42890625 -12 19 C-12.33 19 -12.66 19 -13 19 C-13.57404692 8.05058651 -13.57404692 8.05058651 -10 4 C-6.27368122 1.06651501 -4.81127506 0 0 0 Z " fill="#F5F5F5" transform="translate(46,142)"/>
</svg>
